<svg width="18" height="18" viewBox="0 0 18 18" fill="none" xmlns="http://www.w3.org/2000/svg">
<path d="M9.00008 0.666672C4.40008 0.666672 0.666748 4.40001 0.666748 9.00001C0.666748 13.6 4.40008 17.3333 9.00008 17.3333C13.6001 17.3333 17.3334 13.6 17.3334 9.00001C17.3334 4.40001 13.6001 0.666672 9.00008 0.666672ZM6.74175 12.575L3.75008 9.58334C3.42508 9.25834 3.42508 8.73334 3.75008 8.40834C4.07508 8.08334 4.60008 8.08334 4.92508 8.40834L7.33342 10.8083L13.0667 5.07501C13.3917 4.75001 13.9167 4.75001 14.2417 5.07501C14.5667 5.40001 14.5667 5.925 14.2417 6.25001L7.91675 12.575C7.60008 12.9 7.06675 12.9 6.74175 12.575Z" fill="white"/>
</svg>
