<svg width="33" height="33" viewBox="0 0 33 33" fill="none" xmlns="http://www.w3.org/2000/svg">
<path d="M31.9585 15.4646L28.1668 11.6729V6.29167C28.1668 5.48958 27.5105 4.83333 26.7085 4.83333H21.3272L17.5355 1.04167C16.9668 0.472917 16.048 0.472917 15.4793 1.04167L11.673 4.83333H6.2918C5.48971 4.83333 4.83346 5.48958 4.83346 6.29167V11.6729L1.0418 15.4646C0.473047 16.0333 0.473047 16.9521 1.0418 17.5208L4.83346 21.3125V26.7083C4.83346 27.5104 5.48971 28.1667 6.2918 28.1667H11.673L15.4647 31.9583C16.0335 32.5271 16.9522 32.5271 17.521 31.9583L21.3126 28.1667H26.7085C27.5105 28.1667 28.1668 27.5104 28.1668 26.7083V21.3271L31.9585 17.5354C32.5272 16.9667 32.5272 16.0333 31.9585 15.4646ZM25.1335 17.9292C24.6376 21.0208 22.4355 23.675 19.4751 24.725C17.7105 25.3521 15.9605 25.3812 14.371 24.9875C13.773 24.8417 13.671 24.0396 14.1814 23.675C16.471 22.1 17.9585 19.475 17.9585 16.5C17.9585 13.525 16.471 10.9 14.196 9.325C13.6855 8.975 13.773 8.17292 14.3855 8.0125C15.9751 7.61875 17.7251 7.64792 19.4897 8.275C22.4355 9.325 24.6522 11.9792 25.148 15.0708C25.221 15.5521 25.2501 16.0333 25.2501 16.5C25.2355 16.9667 25.2064 17.4479 25.1335 17.9292Z" fill="white"/>
</svg>
